<svg width="358" height="99" viewBox="0 0 358 99" fill="none" xmlns="http://www.w3.org/2000/svg">
<path d="M53.3844 60.4979C59.8675 67.3013 67.1079 65.0089 69.9178 63.0123C94.2666 62.8146 93.6472 32.7856 85.6608 29.764C86.4339 40.3001 80.3135 47.7744 77.1567 50.1945L75.8007 46.2867L82.0253 28.7017C65.2667 30.7987 62.7605 48.2745 63.6023 56.7502C60.2583 59.7697 56.1767 57.3686 54.5539 55.7905M53.3844 60.4979C54.0357 58.9726 54.3983 57.3757 54.5539 55.7905M53.3844 60.4979C52.9013 61.6153 52.1807 63.0882 51.3028 64.6126M43.8179 72.2373C43.8749 74.1485 43.4229 77.7766 41.1594 76.9993M43.8179 72.2373C43.1858 63.3498 35.1659 62.8007 31.235 63.6371M43.8179 72.2373C44.6912 72.099 45.5784 71.609 46.4468 70.8912M41.1594 76.9993C40.7394 78.3126 39.2728 80.7053 36.7658 79.77M41.1594 76.9993C40.2838 67.9537 32.3704 67.3295 28.5231 68.1481M36.7658 79.77C36.716 81.1793 36.0643 84.1155 33.8563 84.5853M36.7658 79.77C34.8525 74.7219 29.2741 73.3211 26.7241 73.2517M33.8563 84.5853C36.3566 90.1729 38.143 98.9897 26.6716 92.4085C22.1598 94.9421 19.3325 92.5013 19.5545 87.6283C14.5595 85.1068 8.19631 79.6068 22.7042 77.7788M33.8563 84.5853C32.6854 85.1376 31.6068 85.384 30.6193 85.396M22.7042 77.7788C23.2736 76.3463 24.8748 73.4354 26.7241 73.2517M22.7042 77.7788C23.0073 78.8357 23.5451 80.1398 24.3226 81.3685M26.7241 73.2517C26.3076 72.1164 26.0845 69.5063 28.5231 68.1481M28.5231 68.1481C27.539 67.221 26.7037 65.0208 31.235 63.6371M31.235 63.6371C31.3487 62.8969 31.5335 62.0592 31.7982 61.1568M54.5539 55.7905C54.8247 53.0307 54.4677 50.3067 53.9138 48.0587M41.2576 47.8778C39.2816 46.8083 35.6605 43.7597 36.9845 40.121C44.8961 37.0388 59.6356 27.0138 55.3007 11.5706L41.1644 24.0201L37.4381 23.7638C39.3013 19.7831 44.8703 11.1148 52.2417 8.28746C42.3601 6.6308 23.7843 9.88382 28.5336 36.1492C27.7118 39.6826 28.3957 47.5809 37.7057 50.9064M41.2576 47.8778C39.9237 48.7945 38.7441 49.8199 37.7057 50.9064M41.2576 47.8778C43.28 46.4877 45.6569 45.3474 48.4329 44.6224M37.7057 50.9064C36.8935 51.7563 36.1678 52.6435 35.5224 53.5455M35.5224 53.5455C32.0682 53.1439 25.2761 51.1621 25.7416 46.4472M35.5224 53.5455C34.5416 54.9161 33.7462 56.3206 33.1146 57.6795M33.1146 57.6795C30.0733 56.9445 23.7952 54.3097 23.0137 49.6503M33.1146 57.6795C32.5501 58.8941 32.1164 60.0722 31.7982 61.1568M31.7982 61.1568C28.3949 59.608 20.9637 57.2726 18.4653 60.3219M52.2791 19.557C52.3485 21.1159 51.8884 24.6232 49.4925 26.1821M53.9138 48.0587C53.4862 46.3232 52.9411 44.8714 52.4768 43.9059C51.0433 44.0483 49.6967 44.2923 48.4329 44.6224M53.9138 48.0587C55.0524 47.2919 57.3541 46.1203 57.4523 47.5681C57.3568 47.8506 56.5155 48.3444 53.9138 48.0587ZM48.4329 44.6224C48.7488 43.6415 49.0367 41.5431 47.6615 40.9964C47.2771 41.2445 46.8934 42.317 48.4329 44.6224ZM49.6261 57.6258C49.6973 57.9604 49.6496 58.7224 48.8894 59.0939M48.2061 60.8129C47.7683 62.0426 46.5341 64.788 45.0991 65.9326M24.3226 81.3685L22.5151 82.2776L20.7076 83.1867M24.3226 81.3685C25.6808 83.5147 27.7706 85.4306 30.6193 85.396M30.6193 85.396L30.1942 89.5608M46.4468 70.8912C49.1277 72.856 53.9686 77.7882 51.8844 81.7985M46.4468 70.8912C47.3219 70.1678 48.1778 69.2132 48.9813 68.154M48.9813 68.154C51.522 71.0561 57.3606 76.2272 60.3886 73.6946M48.9813 68.154C49.8262 67.04 50.6131 65.8104 51.3028 64.6126M51.3028 64.6126C54.0752 67.2573 60.0651 71.9276 61.846 69.4505" stroke="white" stroke-width="1.53915"/>
<path d="M89 97.588C87.2933 97.588 85.8 97.2253 84.52 96.5C83.2827 95.8173 82.664 94.6013 82.664 92.852C82.664 91.7427 82.9413 90.5053 83.496 89.14C84.264 89.9933 84.968 90.5907 85.608 90.932C86.2907 91.2733 87.016 91.444 87.784 91.444C89.9173 91.444 91.496 90.2493 92.52 87.86C93.5867 85.4707 94.12 82.8253 94.12 79.924C94.12 74.5053 92.0933 71.796 88.04 71.796C86.888 71.796 85.9067 71.86 85.096 71.988L82.472 84.244L79.848 96.5H70.632L79.336 55.796L88.808 54.516L85.8 68.724H86.184C87.8053 68.724 89.32 68.212 90.728 67.188C92.136 66.1213 93.2667 64.7987 94.12 63.22C94.9733 61.5987 95.4 59.9773 95.4 58.356C95.4 56.3933 94.696 54.7507 93.288 53.428C91.9227 52.1053 89.8107 51.444 86.952 51.444C84.3493 51.444 81.8107 52.0413 79.336 53.236C76.8613 54.388 74.8347 56.1373 73.256 58.484C71.72 60.8307 70.952 63.668 70.952 66.996C70.952 68.5747 71.1013 69.684 71.4 70.324C71.6987 70.9213 71.848 71.2627 71.848 71.348C69.5867 71.348 67.88 70.9 66.728 70.004C65.576 69.0653 65 67.5507 65 65.46C65 62.5587 66.088 59.8067 68.264 57.204C70.44 54.6013 73.32 52.5107 76.904 50.932C80.488 49.3107 84.264 48.5 88.232 48.5C91.2187 48.5 93.736 48.9693 95.784 49.908C97.832 50.8467 99.3467 52.084 100.328 53.62C101.352 55.156 101.864 56.8413 101.864 58.676C101.864 60.6387 101.309 62.5373 100.2 64.372C99.0907 66.2067 97.512 67.7 95.464 68.852C98.024 69.3213 99.9227 70.516 101.16 72.436C102.397 74.3133 103.016 76.5533 103.016 79.156C103.016 81.588 102.547 84.2333 101.608 87.092C100.712 89.9507 99.1973 92.4253 97.064 94.516C94.9733 96.564 92.2853 97.588 89 97.588Z" fill="#F99A41"/>
<path d="M109.584 64.5H118.8L117.968 68.468C119.419 67.188 120.72 66.2067 121.872 65.524C123.067 64.8413 124.347 64.5 125.712 64.5C127.077 64.5 128.144 64.9693 128.912 65.908C129.723 66.8467 130.128 67.9773 130.128 69.3C130.128 70.5373 129.723 71.6253 128.912 72.564C128.101 73.5027 126.971 73.972 125.52 73.972C124.581 73.972 123.941 73.7587 123.6 73.332C123.301 72.8627 123.067 72.2013 122.896 71.348C122.768 70.7933 122.64 70.388 122.512 70.132C122.384 69.876 122.149 69.748 121.808 69.748C120.912 69.748 120.144 69.94 119.504 70.324C118.907 70.6653 118.117 71.284 117.136 72.18L112.016 96.5H102.8L109.584 64.5Z" fill="#F99A41"/>
<path d="M138.447 96.884C135.289 96.884 132.836 96.0733 131.087 94.452C129.337 92.788 128.462 90.2067 128.462 86.708C128.462 83.764 129.039 80.5213 130.191 76.98C131.343 73.4387 133.22 70.388 135.823 67.828C138.425 65.2253 141.732 63.924 145.743 63.924C150.436 63.924 152.783 65.972 152.783 70.068C152.783 72.4573 152.1 74.6547 150.735 76.66C149.369 78.6653 147.556 80.2867 145.295 81.524C143.033 82.7187 140.623 83.4013 138.062 83.572C137.977 84.852 137.935 85.7053 137.935 86.132C137.935 88.2227 138.297 89.652 139.022 90.42C139.748 91.1453 140.921 91.508 142.543 91.508C144.847 91.508 146.809 90.9747 148.431 89.908C150.095 88.8413 151.908 87.22 153.871 85.044H156.047C151.311 92.9373 145.444 96.884 138.447 96.884ZM138.575 80.5C140.153 80.4147 141.647 79.86 143.055 78.836C144.505 77.812 145.657 76.5107 146.511 74.932C147.407 73.3533 147.854 71.6893 147.854 69.94C147.854 68.1907 147.321 67.316 146.255 67.316C144.719 67.316 143.204 68.66 141.711 71.348C140.26 74.036 139.215 77.0867 138.575 80.5Z" fill="#F99A41"/>
<path d="M164.545 61.044C163.137 61.044 161.942 60.5533 160.961 59.572C159.98 58.5907 159.489 57.396 159.489 55.988C159.489 54.58 159.98 53.3853 160.961 52.404C161.942 51.38 163.137 50.868 164.545 50.868C165.953 50.868 167.148 51.38 168.129 52.404C169.153 53.3853 169.665 54.58 169.665 55.988C169.665 57.396 169.153 58.5907 168.129 59.572C167.148 60.5533 165.953 61.044 164.545 61.044ZM160.193 96.884C158.145 96.884 156.481 96.244 155.201 94.964C153.964 93.684 153.345 91.764 153.345 89.204C153.345 88.1373 153.516 86.7507 153.857 85.044L158.209 64.5H167.425L162.817 86.26C162.646 86.9 162.561 87.5827 162.561 88.308C162.561 89.1613 162.753 89.78 163.137 90.164C163.564 90.5053 164.246 90.676 165.185 90.676C165.953 90.676 166.636 90.548 167.233 90.292C167.062 92.4253 166.294 94.068 164.929 95.22C163.606 96.3293 162.028 96.884 160.193 96.884ZM183.553 67.956H179.969C178.774 67.956 177.878 68.02 177.281 68.148C176.726 68.276 176.449 68.5533 176.449 68.98C176.449 69.0653 176.556 69.172 176.769 69.3C177.025 69.3853 177.153 69.748 177.153 70.388C177.153 71.4973 176.812 72.3507 176.129 72.948C175.446 73.5027 174.636 73.78 173.697 73.78C172.886 73.78 172.182 73.5453 171.585 73.076C171.03 72.564 170.753 71.86 170.753 70.964C170.753 70.068 171.052 69.108 171.649 68.084C172.289 67.06 173.164 66.2067 174.273 65.524C175.425 64.8413 176.726 64.5 178.177 64.5H194.625L178.945 91.572C179.201 91.572 179.67 91.6147 180.353 91.7C181.804 91.8707 182.956 91.956 183.809 91.956C185.644 91.956 186.646 91.5293 186.817 90.676C186.433 90.6333 186.134 90.5053 185.921 90.292C185.708 90.036 185.601 89.716 185.601 89.332C185.601 88.6493 185.921 88.0307 186.561 87.476C187.201 86.8787 188.076 86.58 189.185 86.58C190.124 86.58 190.828 86.8573 191.297 87.412C191.766 87.9667 192.001 88.7133 192.001 89.652C192.001 90.676 191.681 91.7213 191.041 92.788C190.401 93.8547 189.484 94.7507 188.289 95.476C187.094 96.1587 185.729 96.5 184.193 96.5H167.233L183.553 67.956Z" fill="#F99A41"/>
<path d="M262.25 97.588C260.543 97.588 259.05 97.2253 257.77 96.5C256.533 95.8173 255.914 94.6013 255.914 92.852C255.914 91.7427 256.191 90.5053 256.746 89.14C257.514 89.9933 258.218 90.5907 258.858 90.932C259.541 91.2733 260.266 91.444 261.034 91.444C263.167 91.444 264.746 90.2493 265.77 87.86C266.837 85.4707 267.37 82.8253 267.37 79.924C267.37 74.5053 265.343 71.796 261.29 71.796C260.138 71.796 259.157 71.86 258.346 71.988L253.098 96.5H243.882L252.586 55.796L262.058 54.516L259.05 68.724H259.434C261.055 68.724 262.57 68.212 263.978 67.188C265.386 66.1213 266.517 64.7987 267.37 63.22C268.223 61.5987 268.65 59.9773 268.65 58.356C268.65 56.3933 267.946 54.7507 266.538 53.428C265.173 52.1053 263.061 51.444 260.202 51.444C257.599 51.444 255.061 52.0413 252.586 53.236C250.111 54.388 248.085 56.1373 246.506 58.484C244.97 60.8307 244.202 63.668 244.202 66.996C244.202 68.5747 244.351 69.684 244.65 70.324C244.949 70.9213 245.098 71.2627 245.098 71.348C242.837 71.348 242.666 72.052 241.514 71.156C240.362 70.2173 238.25 67.5507 238.25 65.46C238.25 62.5587 239.338 59.8067 241.514 57.204C243.69 54.6013 246.57 52.5107 250.154 50.932C253.738 49.3107 257.514 48.5 261.482 48.5C264.469 48.5 266.986 48.9693 269.034 49.908C271.082 50.8467 272.597 52.084 273.578 53.62C274.602 55.156 275.114 56.8413 275.114 58.676C275.114 60.6387 274.559 62.5373 273.45 64.372C272.341 66.2067 270.762 67.7 268.714 68.852C271.274 69.3213 273.173 70.516 274.41 72.436C275.647 74.3133 276.266 76.5533 276.266 79.156C276.266 81.588 275.797 84.2333 274.858 87.092C273.962 89.9507 272.447 92.4253 270.314 94.516C268.223 96.564 265.535 97.588 262.25 97.588Z" fill="#F99A41"/>
<path d="M287.826 96.756C284.669 96.756 282.173 95.9453 280.338 94.324C278.503 92.7027 277.586 90.1427 277.586 86.644C277.586 83.7427 278.183 80.5213 279.378 76.98C280.573 73.4387 282.493 70.388 285.138 67.828C287.783 65.2253 291.111 63.924 295.122 63.924C300.583 63.924 303.314 67.3373 303.314 74.164V74.228C303.442 74.2707 303.677 74.292 304.018 74.292C305.426 74.292 307.047 73.9293 308.882 73.204C310.717 72.436 312.381 71.5187 313.874 70.452L314.45 72.18C313.213 73.5027 311.591 74.6333 309.586 75.572C307.623 76.468 305.469 77.108 303.122 77.492C302.781 81.3747 301.906 84.7667 300.498 87.668C299.09 90.5693 297.277 92.8093 295.058 94.388C292.839 95.9667 290.429 96.756 287.826 96.756ZM290.386 90.996C291.41 90.996 292.434 90.42 293.458 89.268C294.482 88.0733 295.378 86.4733 296.146 84.468C296.914 82.42 297.469 80.1587 297.81 77.684C296.658 77.428 296.082 76.532 296.082 74.996C296.082 73.2467 296.743 72.0947 298.066 71.54C297.981 70.132 297.767 69.172 297.426 68.66C297.085 68.1053 296.487 67.828 295.634 67.828C294.226 67.828 292.861 68.852 291.538 70.9C290.215 72.948 289.149 75.4013 288.338 78.26C287.527 81.1187 287.122 83.636 287.122 85.812C287.122 87.86 287.357 89.2467 287.826 89.972C288.295 90.6547 289.149 90.996 290.386 90.996Z" fill="#F99A41"/>
<path d="M314.287 96.884C311.855 96.884 309.828 96.052 308.207 94.388C306.586 92.724 305.775 90.1213 305.775 86.58C305.775 83.4227 306.394 80.116 307.631 76.66C308.911 73.1613 310.788 70.2173 313.263 67.828C315.78 65.396 318.767 64.18 322.223 64.18C323.972 64.18 325.274 64.4787 326.127 65.076C326.98 65.6733 327.407 66.4627 327.407 67.444V67.892L328.111 64.5H337.327L332.719 86.26C332.548 86.9 332.463 87.5827 332.463 88.308C332.463 90.1427 333.338 91.06 335.087 91.06C336.282 91.06 337.306 90.5053 338.159 89.396C339.055 88.2867 339.759 86.836 340.271 85.044H342.959C341.38 89.652 339.418 92.788 337.071 94.452C334.767 96.0733 332.442 96.884 330.095 96.884C328.303 96.884 326.852 96.3933 325.743 95.412C324.676 94.388 324.036 92.916 323.823 90.996C322.586 92.7453 321.199 94.1747 319.663 95.284C318.17 96.3507 316.378 96.884 314.287 96.884ZM318.447 90.676C319.514 90.676 320.559 90.1853 321.583 89.204C322.65 88.18 323.375 86.7933 323.759 85.044L326.831 70.58C326.831 70.0253 326.618 69.492 326.191 68.98C325.764 68.4253 325.103 68.148 324.207 68.148C322.5 68.148 320.964 69.1507 319.599 71.156C318.234 73.1187 317.167 75.508 316.399 78.324C315.631 81.0973 315.247 83.5507 315.247 85.684C315.247 87.8173 315.546 89.1827 316.143 89.78C316.783 90.3773 317.551 90.676 318.447 90.676Z" fill="#F99A41"/>
<path d="M346.31 96.884C344.134 96.884 342.513 96.2227 341.447 94.9C340.423 93.5773 339.91 91.828 339.91 89.652C339.91 88.5427 340.038 87.412 340.294 86.26L344.391 67.06H342.279L342.79 64.5H344.902L346.823 55.668L356.294 54.388C355.91 56.0093 355.697 56.9693 355.654 57.268C355.356 58.4627 354.844 60.8733 354.118 64.5H357.958L357.447 67.06H353.607L349.51 86.26C349.297 87.1987 349.19 87.9453 349.19 88.5C349.19 90.036 349.937 90.804 351.43 90.804C352.198 90.804 352.753 90.74 353.094 90.612C352.241 93.0867 351.238 94.7507 350.086 95.604C348.934 96.4573 347.676 96.884 346.31 96.884Z" fill="#F99A41"/>
<path d="M207.089 43.1152C206.547 44.4639 204.24 45.3225 202.156 44.4852C200.072 43.6479 196.114 40.2725 196.655 38.9238C197.197 37.5751 202.212 38.3199 204.296 39.1572C206.381 39.9945 207.631 41.7666 207.089 43.1152Z" fill="white"/>
<path d="M212.523 41.3696C210.799 40.8875 209.437 38.1779 210.183 35.5135C210.928 32.8491 214.529 27.5496 216.253 28.0318C217.977 28.514 217.739 34.754 216.993 37.4184C216.248 40.0828 214.247 41.8518 212.523 41.3696Z" fill="white"/>
<path d="M216.668 45.9379C216.22 44.514 217.493 42.3293 219.694 41.6365C221.894 40.9437 227.236 41.046 227.684 42.4699C228.133 43.8938 223.665 46.5689 221.464 47.2617C219.264 47.9545 217.117 47.3618 216.668 45.9379Z" fill="white"/>
<path d="M217.448 96.384C215.187 96.384 213.544 95.7013 212.52 94.336C211.496 92.9707 210.984 91.2427 210.984 89.152C210.984 88.256 211.091 87.2533 211.304 86.144C211.517 84.992 211.731 83.8827 211.944 82.816C212.2 81.7493 212.371 81.0667 212.456 80.768C212.797 79.2747 213.117 77.8027 213.416 76.352C213.715 74.9013 213.864 73.728 213.864 72.832C213.864 70.656 213.096 69.568 211.56 69.568C210.536 69.568 209.597 70.0373 208.744 70.976C207.933 71.9147 207.272 73.152 206.76 74.688L202.216 96L199.996 93.5L197.608 96L196.496 93L193 96L203.496 63.744L211.56 41.5L208.296 67.264C210.429 64.9173 212.925 63.744 215.784 63.744C217.96 63.744 219.688 64.3413 220.968 65.536C222.248 66.7307 222.888 68.544 222.888 70.976C222.888 72.2133 222.739 73.6 222.44 75.136C222.141 76.6294 221.715 78.464 221.16 80.64C220.819 81.9627 220.499 83.264 220.2 84.544C219.944 85.7813 219.816 86.7627 219.816 87.488C219.816 88.3413 220.008 89.0027 220.392 89.472C220.776 89.9413 221.437 90.176 222.376 90.176C223.4 90.176 224.104 90.048 224.488 89.792C224.232 91.968 223.443 93.6107 222.12 94.72C220.84 95.8293 219.283 96.384 217.448 96.384Z" fill="white"/>
</svg>
