<svg width="47" height="47" viewBox="0 0 47 47" fill="none" xmlns="http://www.w3.org/2000/svg">
<path d="M37.9916 29.375C37.731 29.9657 37.6532 30.6209 37.7684 31.2562C37.8836 31.8914 38.1864 32.4776 38.6379 32.9392L38.7554 33.0567C39.1196 33.4204 39.4084 33.8524 39.6055 34.3279C39.8026 34.8033 39.9041 35.313 39.9041 35.8277C39.9041 36.3424 39.8026 36.8521 39.6055 37.3276C39.4084 37.803 39.1196 38.235 38.7554 38.5988C38.3916 38.9629 37.9597 39.2518 37.4842 39.4489C37.0087 39.646 36.4991 39.7475 35.9844 39.7475C35.4696 39.7475 34.96 39.646 34.4845 39.4489C34.009 39.2518 33.5771 38.9629 33.2133 38.5988L33.0958 38.4813C32.6343 38.0298 32.0481 37.7269 31.4128 37.6118C30.7775 37.4966 30.1223 37.5743 29.5316 37.835C28.9524 38.0833 28.4584 38.4954 28.1105 39.0208C27.7625 39.5462 27.5758 40.1619 27.5733 40.7921V41.125C27.5733 42.1638 27.1607 43.16 26.4261 43.8945C25.6916 44.629 24.6954 45.0417 23.6566 45.0417C22.6179 45.0417 21.6217 44.629 20.8871 43.8945C20.1526 43.16 19.74 42.1638 19.74 41.125V40.9488C19.7248 40.3006 19.515 39.6719 19.1378 39.1445C18.7606 38.6172 18.2335 38.2155 17.625 37.9917C17.0343 37.731 16.3791 37.6532 15.7438 37.7684C15.1086 37.8836 14.5224 38.1865 14.0608 38.6379L13.9433 38.7554C13.5796 39.1196 13.1476 39.4085 12.6721 39.6056C12.1966 39.8027 11.687 39.9041 11.1723 39.9041C10.6576 39.9041 10.1479 39.8027 9.67242 39.6056C9.19695 39.4085 8.76498 39.1196 8.40123 38.7554C8.03707 38.3917 7.74818 37.9597 7.55108 37.4842C7.35398 37.0088 7.25252 36.4991 7.25252 35.9844C7.25252 35.4697 7.35398 34.96 7.55108 34.4845C7.74818 34.0091 8.03707 33.5771 8.40123 33.2133L8.51873 33.0958C8.9702 32.6343 9.27305 32.0481 9.38824 31.4128C9.50343 30.7776 9.42566 30.1223 9.16498 29.5317C8.91674 28.9525 8.50454 28.4585 7.97914 28.1105C7.45374 27.7626 6.83806 27.5759 6.2079 27.5733H5.87498C4.83622 27.5733 3.84 27.1607 3.10548 26.4262C2.37096 25.6917 1.95831 24.6954 1.95831 23.6567C1.95831 22.6179 2.37096 21.6217 3.10548 20.8872C3.84 20.1527 4.83622 19.74 5.87498 19.74H6.05123C6.69943 19.7248 7.32807 19.515 7.85544 19.1378C8.38281 18.7607 8.78451 18.2335 9.00831 17.625C9.269 17.0343 9.34676 16.3791 9.23157 15.7439C9.11638 15.1086 8.81353 14.5224 8.36206 14.0608L8.24456 13.9433C7.8804 13.5796 7.59152 13.1476 7.39441 12.6722C7.19731 12.1967 7.09586 11.687 7.09586 11.1723C7.09586 10.6576 7.19731 10.1479 7.39441 9.67245C7.59152 9.19698 7.8804 8.76501 8.24456 8.40126C8.60832 8.0371 9.04028 7.74821 9.51575 7.55111C9.99123 7.35401 10.5009 7.25255 11.0156 7.25255C11.5303 7.25255 12.04 7.35401 12.5155 7.55111C12.9909 7.74821 13.4229 8.0371 13.7866 8.40126L13.9041 8.51876C14.3657 8.97023 14.9519 9.27308 15.5872 9.38827C16.2224 9.50346 16.8776 9.42569 17.4683 9.16501H17.625C18.2042 8.91677 18.6982 8.50457 19.0461 7.97917C19.3941 7.45377 19.5808 6.83809 19.5833 6.20793V5.87501C19.5833 4.83625 19.996 3.84003 20.7305 3.10551C21.465 2.37099 22.4612 1.95834 23.5 1.95834C24.5387 1.95834 25.535 2.37099 26.2695 3.10551C27.004 3.84003 27.4166 4.83625 27.4166 5.87501V6.05126C27.4192 6.68143 27.6059 7.2971 27.9538 7.8225C28.3018 8.34791 28.7958 8.7601 29.375 9.00834C29.9656 9.26903 30.6209 9.34679 31.2561 9.2316C31.8914 9.11642 32.4776 8.81356 32.9391 8.36209L33.0566 8.24459C33.4204 7.88044 33.8524 7.59155 34.3278 7.39444C34.8033 7.19734 35.313 7.09589 35.8277 7.09589C36.3424 7.09589 36.8521 7.19734 37.3275 7.39444C37.803 7.59155 38.235 7.88044 38.5987 8.24459C38.9629 8.60835 39.2518 9.04031 39.4489 9.51579C39.646 9.99126 39.7474 10.5009 39.7474 11.0156C39.7474 11.5303 39.646 12.04 39.4489 12.5155C39.2518 12.991 38.9629 13.4229 38.5987 13.7867L38.4812 13.9042C38.0298 14.3657 37.7269 14.9519 37.6117 15.5872C37.4965 16.2225 37.5743 16.8777 37.835 17.4683V17.625C38.0832 18.2042 38.4954 18.6982 39.0208 19.0462C39.5462 19.3941 40.1619 19.5808 40.7921 19.5833H41.125C42.1637 19.5833 43.16 19.996 43.8945 20.7305C44.629 21.465 45.0416 22.4612 45.0416 23.5C45.0416 24.5388 44.629 25.535 43.8945 26.2695C43.16 27.004 42.1637 27.4167 41.125 27.4167H40.9487C40.3186 27.4192 39.7029 27.6059 39.1775 27.9539C38.6521 28.3018 38.2399 28.7958 37.9916 29.375Z" fill="#F99A41"/>
<path d="M23.5 29.375C26.7447 29.375 29.375 26.7447 29.375 23.5C29.375 20.2553 26.7447 17.625 23.5 17.625C20.2553 17.625 17.625 20.2553 17.625 23.5C17.625 26.7447 20.2553 29.375 23.5 29.375Z" stroke="#2D4086" stroke-width="2" stroke-linecap="round" stroke-linejoin="round"/>
</svg>
